<?xml version="1.0" encoding="UTF-8"?>
<svg version="1.1" viewBox="0 0 800 800" width="1280" height="1280" xmlns="http://www.w3.org/2000/svg">
<path transform="translate(0)" d="m0 0h800v800h-800z" fill="#FCFDFC"/>
<path transform="translate(383,112)" d="m0 0h43l26 3 24 5 17 5 11 5-3 1-21-6-17-3-19-2h-43l-24 3-23 5-33 11-24 11-16 9-16 11-13 10-15 13-12 12-9 11-10 12-12 17-9 16-13 27-11 33-5 25-3 27v35l3 27 6 27 11 33 1 2 10-19 13-24 12-21 17-29 7-12 1-4v-10l-4-11-13-18-6-8-8-14-2-5 1-3 8 10 5 7 4 1 10-7 11-9 7-12 6-18h2v9l-4 16-6 11-16 16 1 4 10 9 9 7 3-3 9-17 4-12 1-12-1-10v-12l3-12 7-11 12-10 14-9 11-7 18-13 2-9 4-6 10-11 8-7 10-9-1-4-8-7-4-8-3-11v-8l1-4h2l3 13 5 10 12 11 6 1 13-12 2-1-2 6-12 16-25 25-3 7 9-2 16-5 9-2h11l17 6 13 6h8v-2l8-7 14-12 8-6 3-1h24l9 1h10l9-3 6-7 7-11v-3l-6 1-8-7-4-6-1-4-1-18 4 1 9 6 8 9 3 10-1 9 1 3-4 11-7 11-8 6-9 3-7 1-26 1-8 3-8 8-7 8-6 8 14 10 11 9 10 9 8 7 6 6 3 1 18 1 7 4 12 12 1 4-4-2-11-8-5-3h-22l-9-6-6-3-1 8-1 10 3 9 3 6v3l-4-2-6-9-2-7-1-22-3-5-11-9-24-14-25-12-12-4-11-1-16 4-15 8-9 7-28 22-5 5 8 9 6 12 4 24 1 3 21 9 9 6 8 9 1 4h-4l-5-6-11-6-9-3-15-3-5-4-4-13-4-15-4-6-6-5-3 1v15l3 17 2 9v20l-4 12-10 26-7 22-6 24-5 31-3 28-2 32 5-1h22l17 2 22 5 7 1 10-11 11-9 5-5 10-9h2l2-4 8-6 28-28 7-8 7-9 2-1 5-9 8-14 5-16 2-20 2-48 3-15 5-12h4l2 9 2 14 4-4 8-13 4 4 1 10 23 3 9 5 3 3 7 1 31-1 2 9-1 13-4 10-5 6-10 4-15 2v2l-3 3-1 3v7l6 23 4 8 7 21 3 10 1 8v20l-4 17-8 17-3 4-5 9-13 16-6 8h-2v8l20 6 20 8 21 11 11 7 3 3h5l16-13 12-11 6-5 2-3h2l2-4 13-14 13-18 12-20 8-15 6-15 4-9 2-2-2 10-7 19-8 18-13 23-9 13-14 19-15 16-17 17-11 9-10 8-13 9-15 9-23 12-26 10-24 7-25 5-27 3h-35l-27-3-25-5-24-7-27-11-25-13-21-14-11-8-14-12-16-15-12-13-11-14-11-16-11-18-8-15-10-24-8-25-5-22-4-31v-42l3-26 5-24 7-24 10-25 8-16 7-13 14-21 10-13 12-14 20-20 11-9 16-12 14-9 17-10 21-10 25-9 25-7 30-5z" fill="#051C4D"/>
<path transform="translate(383,234)" d="m0 0 11 1 17 6 24 12 21 13 10 8 3 3 1 3 1 22 4 11 5 6 2 1-2 5-8 13-3 1-2-7-2-14-1-2h-2l-6 15-2 12-2 48-2 20-6 18-9 16-4 6h-2l-2 4-8 10-28 28-8 7-5 4-5 5-8 7-3 1-2 4-14 12-7 8-7-1-22-5-17-2h-27v-18l3-34 4-27 5-25 8-28 12-31 4-12v-20l-4-18-1-8v-15l4-2 8 7 4 7 5 21 3 6 3 2 22 5 10 5 8 7 1 2h2l-2-5-8-9-16-8-12-5-2-4-4-24-6-12-8-9 5-5 12-10 13-10 10-8 14-8 10-4z" fill="#FCFDFC"/>
<path transform="translate(432,465)" d="m0 0 4 2 1 5 2-1 2-5 3 1v8l12 2 10 3 4 6 10 4 2 2v11l-5 5-8 5-2 5v8l9 21 2 7v23l-4 17-6 18-1 5v14l2 12 9 3 1 1v5l-2 2-4 1h-10l-3-3-7-17-2-4-1-20-6-11-3-3h-2l6 10 1 3v10l-5 12-6 8-4 3 3 1 16 1 5 4 1 6h-81l-14-2-12-4-10-6-7-8-3-7-1-12 2-9 4-6 5-6 9-5 7-2 7 1 2 2v5l-12 5-7 5-3 6v11l3 6 5 5 6 3h11l6-2v-28l2-15 6-16 7-10 10-11 10-7 11-7 3-4 1-4v-11l-1-9v-20l3-12 6-15z" fill="#FCFDFC"/>
<path transform="translate(452,354)" d="m0 0h1v13l-2 37-3 14-5 13-12 20h-2l-2 4-8 10-28 28-8 7-5 4-5 5-8 7-3 1-2 4-14 12-2 2-6-1-14-4-3-4-3-16v-31l2-16 4-14 5-12 8-14 7-11 4-6 5-5 8-7 7-8 20-13 24-11 11-3 14-2h15z" fill="#FEB723"/>
<path transform="translate(541,388)" d="m0 0 9 3 10 9 8 10 11 18 8 15 6 20 3 17v36l-5 19-6 16-10 19-7 9-9 11-9-3-17-8-19-7-9-2-3-3h2l2-4 14-17 6-9 3-6 8-15 4-14 1-6v-20l-2-11-4-15-8-20-3-9-4-15v-7l3-6h2v-2z" fill="#FEB723"/>
<path transform="translate(670,215)" d="m0 0h3v9l-1 7 9-7 2 1v7l-1 4v7l2 2-2 11-3 6 2 4-1 6-6 9-4 5h5v3l-4 5-4 3-3 5-6 2-2 5-1 1h-9l-7-1v9l9 10 10 11 9 14 8 16 4 12-1 4-6-8-6-9-6-7-8-13-1-1-2 10-5 9h-3v-9l1-13-4-8-6-5-5-1-4-5-3-1v2l-8 4-13 4h-5l4-4 13-4 5-6v-3l-19-4-2-1h-7l2-5 1-2h2v3l9 2h6l3-1v-7l-2-4h-6l-6 4h-3l1-5 4-14 3-4 8-2 7 1 6 1 9-14 16-25 12-16z" fill="#071F4C"/>
<path transform="translate(265,519)" d="m0 0h1v14l5-1h22l17 2 22 5 7 2-12 18-6 14-4 14-1 6-1 28-1 1-11-1-10-3-9-7-5-8-3-7-1-5v-15l3-8 3-6v-2l-8 6-6 8h-2z" fill="#5F8C47"/>
<path transform="translate(500,573)" d="m0 0 2 2 20 6 20 8 21 11 11 7 3 3 5 1-3 2-10 7-21 12-21 10-7 1-2-5-13-1h-6l-1-1v-40z" fill="#5F8C47"/>
<path transform="translate(535,201)" d="m0 0h8l11 4 11 7 8 7v2l-15 5-5 1h-7l-11-3-8-4-1 8 7 8 3 4v3l-2 1h-12l-9-3-7-6-4-6v-2h-3v6l-5-1-3-4-10 11-6 4-4 1h-11l-3-3v-6l6-8 5-3 9-1-1-4-6-2 4-2 26-1 14-3 6-4h3l3-3v2h2l1-3z" fill="#F6FDFA"/>
<path transform="translate(541,388)" d="m0 0 9 3 10 9 8 10 11 18 8 15 6 20 3 17v36l-5 19-6 16-10 19-7 9-9 11-9-3-17-8-19-7-9-2-3-3h2l2-4 14-17 6-9 3-6 8-15 4-14 1-6v-20l-2-11-4-15-8-20-3-9-4-15v-7l3-6h2v-2zm-10 7-4 4v2h-3v8l3 10 1 2h2v8l4 12 7 13 3 22 3 15-2 7 1 3h-2v9l-8 20-7 9-4 7-2 5-5 7 1 4 3 1 4 6 6 7 10 4 5 3h12l5-3 5-6 1-6h2v-2h2l1-10h2l1-4 3-8 4-18 3-13 2-3 2-11v-24l-2-16-4-12-5-11-9-16-8-11-7-9-9-4-3-1z" fill="#FBC238"/>
<path transform="translate(452,354)" d="m0 0h1v13l-2 37-3 14-5 13-12 20h-2l-2 4-8 10-28 28-8 7-5 4-5 5-8 7-3 1-2 4-14 12-2 2-6-1-14-4-3-4-3-16v-31l2-16 4-14 5-12 8-14 7-11 4-6 5-5 8-7 7-8 20-13 24-11 11-3 14-2h15zm-13 5-20 4-13 4-10 6-17 9-13 11-7 7-5 3-5 6-10 17-4 9-10 26-3 7-2 14v32l2 7 3 7 7 2 7 1 9-6 2-1v-2l4-2v-2l4-2v-2l4-2 8-8v-2l3-1 4-4v-2l4-2 7-5v-2l5-2 10-9 4-3v-2h2l9-11 3-5 5-4v-2l4-2 3-7 6-12 4-5 4-13 1-15v-13l-3-18-1-3z" fill="#FAC238"/>
<path transform="translate(405,182)" d="m0 0h2l-1 10-5 12-4 6 3 2 2-3 9-2h12l8 4 4 7-1 5-7 2v2l-6 2-17-7-9-3h-11l-23 6-5 2h-6l1-5 7-8 17-17 3 3 1 7h1l2-11 6-7 13-6z" fill="#FCFDFC"/>
<path transform="translate(383,112)" d="m0 0h43l26 3 24 5 17 5 11 5-3 1-21-6-17-3-19-2h-43l-24 3-15 3h-8l2-1h-4-6l4-2 1-5-7 3-1 3h-8-1l-3 3-7 1h-3-5v3l-10 2-5 3-5 1-2 2-13 4-14 7-8 5-3 1-1 2-6 2-2 3-3-1 2-4 24-14 21-10 25-9 25-7 30-5z" fill="#0F1933"/>
<path transform="translate(453,354)" d="m0 0h3v27l1 12-2 19-4 16-7 11h-2l-3 10-4 8-1 6 4 2-2 1h-4l-7 18-3 8-1-4-2-9 1-3-1-3-3 3h-2l-2 4-16 15-13 13-9 7-10 9-5 5h-2v2l-8 7-7 5-5 1 6-9 14-13 8-7 10-9h2l2-4 8-6 28-28 7-8 7-9 2-1 5-9 8-14 5-16 2-20z" fill="#060D2F"/>
<path transform="translate(511,145)" d="m0 0 4 1 9 6 8 9 3 10-1 9 1 3-4 11-7 11-8 6-9 3-7 1-26 1-8 3-3 3h-3l1-6 7-8 1-6h21l9 1h10l9-3 6-7 7-11v-3l-6 1-8-7-4-6-1-4z" fill="#091232"/>
<path transform="translate(336,276)" d="m0 0h11l11 4 11 7 13 11-1 2-11 4-10 2h-15l-11-4-10-9-2-6 24-1-2-1h-20l2-4z" fill="#628E4A"/>
<path transform="translate(425,264)" d="m0 0h14l4 2 1 4 4 2-1 5-10 11-8 5-7 2h-18l-10-2v-4l10-11 5-5 10-7z" fill="#618D49"/>
<path transform="translate(372,246)" d="m0 0h14l12 4 15 8v4l-10 6-9 4-5 1h-15l-7-3-11-7 1-4 6-2-6-1 5-6z" fill="#5F8B48"/>
<path transform="translate(522,390)" d="m0 0h7l-3 1v2l-3 3-1 3v7l6 23 4 8 7 21 3 10 1 8v20l-4 17-8 17-3 4-5 9-13 16-6 8h-2l-1 10-2 2-1-5 2-10 4-6 7-9 3-1 2-5 5-11h2l1-4h2l3-9 5-12 1-9v-28l-2-8-4-12-4-10-2-6-4-15 1-28z" fill="#080F2F"/>
<path transform="translate(542,267)" d="m0 0 11 1 15 5 10 5 1 2-14 9-12 5-4 1h-7l-12-4-7-6 1-5h7l2-1h-10l6-7 8-4z" fill="#628F4A"/>
<path transform="translate(463,167)" d="m0 0 3 1v12l-3 15-5 9-17 12-8-6-1-2v-11l3-8 8-9 14-10z" fill="#618E49"/>
<path transform="translate(450,248)" d="m0 0 5 2 14 11 11 10 8 7 6 6 3 1 18 1 7 4 12 12 1 4-4-2-11-8-5-3h-22l-9-6-6-3-1 8-1 10 3 9 3 6v3l-4-2-6-9-2-7-1-22-3-5-6-5 2-2 2 1v2l6 2-1-3-4-2-7-8-9-7 3-1z" fill="#132036"/>
<path transform="translate(679,481)" d="m0 0 1 3-4 13-6 15-7 16-13 23-9 13-14 19-15 16-17 17-11 9-4 3-3-1 1-4 5-3 6-8 8-8 7-8 2 1v2l5-1-1-3v-1l-3-1h2l2-4 3-1 2-5 3-3 2-5 7-7 9-11 13-18 11-19 8-16 6-13z" fill="#0F1935"/>
<path transform="translate(426,131)" d="m0 0h6l-3 12-7 14-8 8-12 5-7 2h-3l2-7 7-11 7-8h2v-2l-8 7-10 13-3-1 4-13 8-9 14-7z" fill="#64904C"/>
<path transform="translate(535,201)" d="m0 0h8l11 4 11 7 8 7v2l-15 5-5 1h-7l-11-3-8-6-3-3 1-6 4-6z" fill="#618E49"/>
<path transform="translate(226,245)" d="m0 0 6 2 10 8 7 7 4 8 2 11-2 5-4 4-6-1-9-6-6-9-3-11v-17z" fill="#618E49"/>
<path transform="translate(483,246)" d="m0 0h14l13 5 11 7v3l-15 7-5 1h-14l-8-3-8-7 2-5 4-5z" fill="#618E49"/>
<path transform="translate(472,164)" d="m0 0 10 2 12 5 6 4 7 9 2 7-1 6h-2v3l-6 1-10-3-6-4-6-8-4-9z" fill="#618E49"/>
<path transform="translate(349,151)" d="m0 0h2l3 13 5 10 12 11 6 1 13-12 2-1-2 6-12 16-22 22h-2l-1-5h-1l-9 8-3 4-4 1-3 3 1-6 12-13 8-7 10-9-1-4-8-7-4-8-3-11v-8z" fill="#0A1331"/>
<path transform="translate(253,196)" d="m0 0h3l3 10 1 14-3 12-6 7-5 4h-5l-4-5-2-6v-11l6-12z" fill="#618E49"/>
<path transform="translate(314,288)" d="m0 0 4 2 6 12 4 24 1 3 21 9 9 6 8 9 1 4h-4l-5-6-11-6-9-3-15-3-5-4-4-13-1-5v-8l1-2h3l2-7-5-1-2-4v-6z" fill="#0C1634"/>
<path transform="translate(270,226)" d="m0 0h20l9 2 8 7 3 5-3 1 2 4-4 4-7 2-13-4-9-6-9-10 1-4z" fill="#7FAA67"/>
<path transform="translate(253,291)" d="m0 0h2v9l-4 16-6 11-16 16-2 9v7h2l5 6v6l-3-1-5-9-10-13-7-10-8-16 1-3 8 10 5 7 4 1 10-7 11-9 7-12z" fill="#0E1732"/>
<path transform="translate(271,181)" d="m0 0 4 1 8 7 8 9 3 9v11l-2 4-6 1-8-3-5-6-3-8v-17z" fill="#618E49"/>
<path transform="translate(314,178)" d="m0 0h20l10 2 7 6 2 10-1 3-2 1h-15l-10-5-8-7-4-5-1-4z" fill="#608D48"/>
<path transform="translate(205,273)" d="m0 0 4 3 3 7 2 10-1 11-6 10-7 2-6-7-2-5v-7l4-10 7-11z" fill="#618E49"/>
<path transform="translate(256,244)" d="m0 0h13l6 3 6 5 3 5v3h-2l1 4-5 3h-8l-11-4-6-4-8-8-1-4z" fill="#638F4B"/>
<path transform="translate(221,280)" d="m0 0 5 2 12 12 4 8v10l-6 8-5-1-6-5-5-9-1-4v-12l1-8z" fill="#628E4A"/>
<path transform="translate(471,139)" d="m0 0 13 1 10 4 8 8 2 6-3 9-7-1-11-4-5-5-4-5-4-8z" fill="#628E4A"/>
<path transform="translate(380,136)" d="m0 0h5l-2 14-5 10-9 7-6 2-4-4-2-4 1-8 4-6 7-6z" fill="#628E4A"/>
<path transform="translate(324,151)" d="m0 0h10l8 3 2 3v9l-5 3-3 1h-13l-12-6-5-5 3-3z" fill="#77A161"/>
<path transform="translate(457,288)" d="m0 0 5 2 4 6-1 4-5 6-8 5-8 2-14-1 1-4 9-11 6-5z" fill="#63904C"/>
<path transform="translate(511,145)" d="m0 0 4 1 9 6 8 9 3 10-1 10-2 1-1-3-6 1-8-7-4-6-1-4z" fill="#638F4B"/>
<path transform="translate(405,182)" d="m0 0h2l-1 10-5 12-7 8-3 1h-7l-3-5v-9l3-6 6-5 11-5z" fill="#79A264"/>
<path transform="translate(548,177)" d="m0 0h10l13 5 5 5-17 8-4 1-13-1-5-5 1-6 5-5z" fill="#63904C"/>
<path transform="translate(446,131)" d="m0 0 15 1 6 2-6 8-11 9-3 1h-13l-3-1 2-11 3-5 3-3z" fill="#618E49"/>
<path transform="translate(440,157)" d="m0 0 15 1 1 4-8 9-9 6-11 2-7-4-1-3 6-10 4-3z" fill="#63904B"/>
<path transform="translate(314,199)" d="m0 0 4 2 6 9 3 9 1 5-2 9-3 3h-7l-5-5-3-6v-8l4-12z" fill="#79A263"/>
<path transform="translate(438,596)" d="m0 0 4 1 6 8 3 6 1 20 8 18 1 4h-5l-4-6-2-1-16-1-4-2 8-8 6-12 1-3v-10l-5-10z" fill="#152F4D"/>
<path transform="translate(510,220)" d="m0 0 7 1 6 4 8 8 5 7v3l-2 1h-12l-9-3-7-6-4-6 1-5 4-3z" fill="#628F4B"/>
<path transform="translate(546,304)" d="m0 0h7l8 4 8 8 4 7v4l-18-1-8-4-8-8-1-4z" fill="#7FAA67"/>
<path transform="translate(468,224)" d="m0 0h21l2 1-1 4-9 10-6 4-4 1h-11l-3-3v-6l6-8z" fill="#628E4A"/>
<path transform="translate(411,207)" d="m0 0h12l8 4 4 7-1 5-7 3-9-1-16-8-1-6 1-2z" fill="#64904B"/>
<path transform="translate(365,324)" d="m0 0h14l13 5v3l-10 6-10 4h-7l-8-3-1-5v-5z" fill="#64904C"/>
<path transform="translate(453,354)" d="m0 0h3v27l1 12-2 19-4 16-7 11h-2l-3 10-4 3h-2l-1 3v-8l6-9 7-14 4-13 2-20z" fill="#0B102F"/>
<path transform="translate(679,481)" d="m0 0 1 3-4 13-6 15-7 16-13 23-8 12h-7l-4 4-2-1 9-10 14-20 12-21 9-20z" fill="#202D38"/>
<path transform="translate(494,307)" d="m0 0 6 1 6 4 6 5 3 4-1 4h-18l-8-3-5-5 2-5 5-4z" fill="#77A162"/>
<path transform="translate(408,112)" d="m0 0h18l26 3 24 5 17 5 11 5-3 1-21-6-17-3-19-2-36-1v-1l7-1 2-1v-2l-9-1z" fill="#2C3E3B"/>
<path transform="translate(482,273)" d="m0 0 7 6 5 5 3 1 18 1 7 4 12 12 1 4-4-2-11-8-5-3h-22l-12-8 1-4 3 2-6-8z" fill="#162336"/>
<path transform="translate(299,165)" d="m0 0 4 2 3 11v7l-4 11-1 1h-5l-6-7v-9l6-12z" fill="#79A364"/>
<path transform="translate(268,230)" d="m0 0 6 1 16 5 19 9-4 4-7 2-13-4-9-6-8-9z" fill="#618D49"/>
<path transform="translate(651,340)" d="m0 0h3l2 2h4l8 13 7 14 4 12-1 4-6-8-6-9-6-7-6-10v-6z" fill="#0E1733"/>
<path transform="translate(327,326)" d="m0 0 4 4 19 8 9 6 8 9 1 4h-4l-5-6-11-6-9-3-15-3-3-3h3v-3h4v-2l-3-1z" fill="#162336"/>
<path transform="translate(270,189)" d="m0 0 5 3 8 17 6 8 1 3 2 2-6 1-8-3-5-6-3-8z" fill="#7BA564"/>
<path transform="translate(319,124)" d="m0 0 2 1-3 3h-2v3l-10 2-5 3-5 1-2 2-13 4-14 7-8 5-3 1-1 2-6 2-2 3-3-1 2-4 24-14 21-10 25-9z" fill="#131D34"/>
<path transform="translate(256,244)" d="m0 0h13l6 3 6 5 3 5v3h-2l-1 2-16-8-8-2v-3l-3 1-1-2 2-1-4-2z" fill="#76A160"/>
<path transform="translate(450,248)" d="m0 0 5 2 14 11 11 10 2 1-1 3v2l4 4v2l-3-1-2 2-1-5-7-3-3-4v-2l-4-2-7-8-9-7 3-1z" fill="#091333"/>
<path transform="translate(344,159)" d="m0 0 4 1 5 17 6 8 2 3-6 3h-2l-1 2-2-7-6-5-3-2 2-5h-2l-2-6 4-2z" fill="#F6FDFA"/>
<path transform="translate(548,177)" d="m0 0h10l8 3-5 6h-2v2l-5 1h-15l-1 3-1-6 4-6z" fill="#80AC68"/>
<path transform="translate(439,132)" d="m0 0 9 1 4 4-1 3-5 1-2 4-3 2-1 3 7 1v1h-13l-3-1 2-11 3-5z" fill="#79A264"/>
<path transform="translate(604,596)" d="m0 0 2 1v2l7-2-6 7-12 12-11 9-4 3-3-1 1-4 5-3 6-8 8-8z" fill="#0D1733"/>
<path transform="translate(314,157)" d="m0 0h2v3h13l7 4 5 1 2-2-1 5-6 2h-13l-12-6-3-2v-2h3l1-2 2 1z" fill="#628F4A"/>
<path transform="translate(438,636)" d="m0 0 7 1 9-1 5 10 2 7h-5l-4-6-2-1-16-1-4-2 3-3z" fill="#162237"/>
<path transform="translate(455,175)" d="m0 0h2l1 3-7 8-6 12-4 13-2 4-6-5 2-10 4-2 3-8 8-10z" fill="#7BA565"/>
<path transform="translate(320,180)" d="m0 0h10l20 6 2 2 1 9-2 2v-2l-6-1-3-3-7-4-13-5v-2z" fill="#7FAA67"/>
<path transform="translate(522,390)" d="m0 0h7l-3 1v2l-3 3-1 3v7l6 23 4 8 3 9h-2v-3l-3 1-4-7v-2l-3-1-4-15 1-28z" fill="#02072E"/>
<path transform="translate(411,207)" d="m0 0h12l8 4 4 7v2l-4 1-13-5-7-1-1-4-5-2v-1z" fill="#7FAA67"/>
<path transform="translate(405,182)" d="m0 0h2l-1 10-5 12-7 8-3-1v-4l1-6 8-12 1-6z" fill="#628F4B"/>
<path transform="translate(222,290)" d="m0 0 7 1 5 5 4 6v2h2l2 5-1 5-5 6-4-1 1-1-3-16-3-6z" fill="#7EA967"/>
<path transform="translate(428,160)" d="m0 0 2 1-1 1h6v-2h11l-1 5h-3v2l-9 4-5 3-3 3-4-2-1-3 6-10z" fill="#80AB68"/>
<path transform="translate(540,312)" d="m0 0 6 1v2l10 3 7 1 5 1 3-1 2 4v4l-18-1-8-4-7-7z" fill="#638F4B"/>
<path transform="translate(231,251)" d="m0 0 8 6 7 8 8 20-5 5-4-1h2l-1-8-5-12-8-11-3-5z" fill="#7FAA67"/>
<path transform="translate(484,171)" d="m0 0 5 2 8 6 7 8 2 4h3l-1 6h-2v3l-6 1 2-2-3-5-1-5-4-5-3-2v-2l-4-2-5-6z" fill="#7EAA67"/>
<path transform="translate(458,289)" d="m0 0 4 1 3 6-16 7-6 4-4 2h-5l1-4 9-7 12-6z" fill="#7BA565"/>
<path transform="translate(361,198)" d="m0 0h2l2 4h-2v2l-6 5-5 3-9 8-3 4-4 1-3 3 1-6 12-13 8-7z" fill="#091132"/>
<path transform="translate(442,266)" d="m0 0 2 4 3 2-26 6-11 5-5 2v-2h2v-4l14-7 12-4z" fill="#7FAA67"/>
<path transform="translate(380,251)" d="m0 0 13 1 5 1 3 6-10-1h-25l-9-2 2-2 9-1 2-1z" fill="#86AD69"/>
<path transform="translate(479,142)" d="m0 0h7v3l5 2 9 9h4l-2 10-5 1-3-2h3l-3-6-11-10-3-2z" fill="#7FAA67"/>
<path transform="translate(679,481)" d="m0 0 1 3-4 13-6 15-7 16-5 9-5-2 6-11 9-17 6-15 4-9z" fill="#293939"/>
<path transform="translate(314,199)" d="m0 0 4 2 6 9 3 9 1 5-2 7h-5l-1-11-1-1v-11l-3 1-3-3z" fill="#628E4A"/>
<path transform="translate(248,205)" d="m0 0 3 1-4 13-1 7v17h-5l-2-5v-8l2-11z" fill="#7AA364"/>
<path transform="translate(476,250)" d="m0 0 2 1v2l10-2h13l8 3v3l-17-1-17 2-1 4-3-3 2-5z" fill="#89B06F"/>
<path transform="translate(640,336)" d="m0 0 4 2 5 5v2l2 1-2 11-5 9h-3v-9l1-13-2-5z" fill="#0E1733"/>
<path transform="translate(253,291)" d="m0 0h2v9l-4 16-6 11-3-4 1-7 5-10z" fill="#222F37"/>
<path transform="translate(349,151)" d="m0 0h2l3 13 5 10 5 6-4 1h-2l-2 2-4-6-4-14v-8z" fill="#2A3B3B"/>
<path transform="translate(464,226)" d="m0 0 2 1-2 3 6-4h8l-1 4-10 6-3 4-1 2-5 1-1-2v-6l6-8z" fill="#7EA765"/>
<path transform="translate(205,281)" d="m0 0h1v7l-2 6v19l2 2h-5v-2h-2l-2-8v-10l5-10z" fill="#7EA967"/>
<path transform="translate(527,206)" d="m0 0 19 1 10 4 6 4v1l-9-1-7-3h-10l-12 1 2-6z" fill="#84AE6D"/>
<path transform="translate(507,221)" d="m0 0 7 2 1 3 6 1v2l4 2v5l-5 1-10-8-7-2-1 2 1-5z" fill="#7FAB68"/>
<path transform="translate(299,165)" d="m0 0 4 2 3 11v7l-4 11-1 1h-5l-1-3h5l-1-24-1-3z" fill="#64904C"/>
<path transform="translate(525,204)" d="m0 0 2 3-2 4 1 5 3 4h-2l-1 6h-3l-5-4-4-7v-2l4-2 3-1-1-3h3z" fill="#F5FDF9"/>
<path transform="translate(521,154)" d="m0 0h2l4 7 6 9 1 10-2 2-1-3-4 1-2-9-6-13 3-1z" fill="#7EA967"/>
<path transform="translate(339,153)" d="m0 0 4 2 1 2v9l-1-3-10-2-11-2-4-3 9-2z" fill="#80AB68"/>
<path transform="translate(375,197)" d="m0 0 3 3 1 7 3 1 1 3-2 1-11-1-9 1 6-7z" fill="#F6FEFA"/>
<path transform="translate(281,559)" d="m0 0 1 3-5 10-2 12-2-4-6-3v-5l9-10z" fill="#0B102E"/>
<path transform="translate(551,274)" d="m0 0 11 1 3 2v2l-31 1-1-1h-10l3-3z" fill="#7FAA68"/>
<path transform="translate(372,326)" d="m0 0 12 1 3 3-24 5-7-1 1-4 10-2h5z" fill="#8AAD64"/>
<path transform="translate(371,144)" d="m0 0 3 1-1 5-5 6-5 9v3l-3-1-3-6v-5l6-2 4-7z" fill="#7EA967"/>
<path transform="translate(533,181)" d="m0 0h2l-3 11-6 10-4 4-2-1 1-4-3-1 6-7 7-11z" fill="#223038"/>
<path transform="translate(234,388)" d="m0 0 2 3-1 8h-2l-2 7-6 8-2 4-6 6-1-3 14-24 3-5z" fill="#182639"/>
<path transform="translate(453,354)" d="m0 0h3v27l1 12-2 19-2 7h-1v-7l1-8z" fill="#02072E"/>
<path transform="translate(327,326)" d="m0 0 4 4 8 4v2l3 3-5 1-4 1-11-3-1-2h3v-3h4v-2l-3-1z" fill="#142B4B"/>
<path transform="translate(280,226)" d="m0 0h10l9 2 8 7 1 4-6-2-12-6-13-3z" fill="#628F4A"/>
<path transform="translate(548,177)" d="m0 0h10l8 3-5 6h-2v2l-5 1h-15l-1 3-1-6 1 2 15-1 4-3-2-1h-10l3-2-1-2z" fill="#759F60"/>
<path transform="translate(306,139)" d="m0 0h13l-3 2-25 12-3 2-4-1 10-7 4-4 5-1z" fill="#152135"/>
<path transform="translate(273,194)" d="m0 0h1l3 13 7 14-6-1-5-6-2-5v-7l1-1z" fill="#628E4A"/>
<path transform="translate(474,289)" d="m0 0 2 3v10l3 9 3 6v3l-4-2-6-9-1-7 1-11h2z" fill="#131A32"/>
<path transform="translate(515,287)" d="m0 0 4 1 8 7 7 7 1 4-4-2-11-8-5-3-9-1v-1l7-1z" fill="#283839"/>
<path transform="translate(258,246)" d="m0 0h7v3l2 2h3l7 3h3l1 2 2-1 1 5h-2l-1 2-16-8-5-5 1-2z" fill="#7EA967"/>
<path transform="translate(662,362)" d="m0 0 6 2h2l2-2 7 19-1 4-6-8-6-9-4-4z" fill="#233039"/>
<path transform="translate(617,319)" d="m0 0 5 1 1 2h-2l-1 4-8 4-13 4h-5l4-4 13-4z" fill="#162237"/>
<path transform="translate(490,308)" d="m0 0 5 1v2l5 1 3 4v2l-14-1h-6l2-5z" fill="#80AB68"/>
<path transform="translate(551,306)" d="m0 0 6 2 3 3 2 3 3 1 1-2 4 5-2 3-10-1-4-3 2-1 1-3-5-2v-3l-2-1z" fill="#79A264"/>
<path transform="translate(320,180)" d="m0 0h10l14 4-2 4-7 1-13-5v-2z" fill="#79A364"/>
<path transform="translate(370,237)" d="m0 0h3l3 4 9 3-1 2-13 1-1-4-4-1-7 2v-2z" fill="#F6FDFA"/>
<path transform="translate(534,173)" d="m0 0h1v6l6 1-2 4-1 6 2 5-6 1-4-2 4-11-1-7z" fill="#F6FDFA"/>
<path transform="translate(428,160)" d="m0 0 2 1-1 1h6v-2h11l-1 5h-3v2l-5 1 1-3-7 1-8 4-1-2z" fill="#78A163"/>
<path transform="translate(473,210)" d="m0 0h7l16 2 4 3-26 1-6 1 1-4h2l1-2z" fill="#1D384C"/>
<path transform="translate(272,143)" d="m0 0 2 1-3 4-5 3-10 5-1 2-6 2-2 3-3-1 2-4 24-14z" fill="#141F34"/>
<path transform="translate(482,273)" d="m0 0 7 6 5 5v2h-2v2l-5-2-3 1-3-2 1-4 3 2-6-8z" fill="#122B4C"/>
<path transform="translate(522,407)" d="m0 0 3 2 3 12h2l2 11 5 15h-2l-7-17-3-9-3-11z" fill="#FAC035"/>
<path transform="translate(426,656)" d="m0 0h6l1 2-7 1h-35l-8-1v-1z" fill="#02072E"/>
<path transform="translate(556,374)" d="m0 0 1 4-6 7-10 4h-7l1-2 12-4v-2z" fill="#111D35"/>
<path transform="translate(314,178)" d="m0 0h20l10 2 6 5-1 2-19-6v-2l-18 1z" fill="#6A9652"/>
<path transform="translate(438,596)" d="m0 0 4 1 6 8 3 6v6l-3-1-2 3-2-12z" fill="#37534C"/>
<path transform="translate(444,259)" d="m0 0 11 6v3l-5-1v2l-7 1-1-2 1-8z" fill="#F6FDFA"/>
<path transform="translate(346,127)" d="m0 0h5v2l-30 10-2-1 5-3 6-5h7z" fill="#1F2D38"/>
<path transform="translate(155,254)" d="m0 0 1 2-6 12-1 4-2 5-3 8-5 2 2-6 8-16z" fill="#172538"/>
<path transform="translate(391,201)" d="m0 0 1 3 1 7h-2v2h-7l-3-5 1-4 6 1z" fill="#78A263"/>
<path transform="translate(525,421)" d="m0 0 2 4 4 10 4 11h-2v-3l-3 1-4-7-1-2z" fill="#162031"/>
<path transform="translate(455,175)" d="m0 0h2l1 3-7 8-5 9-3 1 2-10 9-10z" fill="#7EA967"/>
<path transform="translate(371,615)" d="m0 0 2 4 1 5v11l-1 1h-6l2-12z" fill="#121E34"/>
<path transform="translate(201,319)" d="m0 0 5 5 8 11-1 3h-4l-8-16z" fill="#2B3B3C"/>
<path transform="translate(391,173)" d="m0 0 1 2-4 7-8 11-2-2 1-4v-3l10-9z" fill="#132744"/>
<path transform="translate(457,288)" d="m0 0 1 3-3 3-14 7h-3l10-10z" fill="#628E4A"/>
<path transform="translate(442,266)" d="m0 0 2 4 3 2-13 3-4-1 1-4 2-2z" fill="#81AC67"/>
<path transform="translate(356,342)" d="m0 0 7 6 5 7-1 3-3-1-5-6-5-4z" fill="#24343A"/>
<path transform="translate(462,315)" d="m0 0 3 1v7h-2v2l-3 3-2 4h-2l-1 3 1-7 5-12z" fill="#1B2B3A"/>
<path transform="translate(481,322)" d="m0 0 4 4-1 9-1-2-4 2-3-3 2-5z" fill="#1A2636"/>
<path transform="translate(346,286)" d="m0 0h11l4 2-3 3-11-2h-25v-2z" fill="#7DA866"/>
<path transform="translate(323,284)" d="m0 0h21l5 1-3 2h-24z" fill="#EEF5ED"/>
<path transform="translate(459,201)" d="m0 0 4 2-5 5-11 9h-1v-5l10-8h2z" fill="#F6FDFA"/>
<path transform="translate(506,320)" d="m0 0h8l1 4-1 1h-18l-2-2 8-1z" fill="#65914D"/>
<path transform="translate(551,347)" d="m0 0h8v5l-30-2v-1l17-1z" fill="#101932"/>
<path transform="translate(358,179)" d="m0 0 5 1 4 1 2 3-1 3-7 1-4-4z" fill="#172439"/>
<path transform="translate(329,121)" d="m0 0h6l-2 5-6 2-4-1-2 1-2-2 3-3z" fill="#0C1735"/>
<path transform="translate(319,511)" d="m0 0 2 3 2 7 2 3v4h6l4 4-11-2-3-4-2-9z" fill="#FEC337"/>
<path transform="translate(522,390)" d="m0 0h7l-3 1v2l-3 3-1 3v7l3 14h-2l-3-9v-20z" fill="#1A2733"/>
<path transform="translate(446,297)" d="m0 0 4 3-7 1-2 4 7-2-3 3-6 3h-5l1-4 9-7z" fill="#79A364"/>
<path transform="translate(403,218)" d="m0 0 6 2 9 4 9 2-2 2-4 1-17-7-3-2z" fill="#F6FDFA"/>
<path transform="translate(270,226)" d="m0 0h10l-1 2 3 2h-2v3l-6-1-7-1 1-4z" fill="#76A061"/>
<path transform="translate(317,223)" d="m0 0h3l1 10 1 2-6 1-3-3 1-2h2l-1-3z" fill="#80AC68"/>
<path transform="translate(362,517)" d="m0 0 2 1-2 1zm-1 2m-1 1m-1 1m-2 1 2 1-5 6-1 3h-2l-1 2h-2l-7 7-2-1 10-11z" fill="#1A2734"/>
<path transform="translate(327,227)" d="m0 0 4 3v5l-8 6-3-4 5-4z" fill="#F7FDFA"/>
<path transform="translate(477,121)" d="m0 0 10 2 15 6 2 2-9-2-19-5z" fill="#425E46"/>
<path transform="translate(527,206)" d="m0 0 10 1 1 3-2 2-12 1 2-6z" fill="#7FAA67"/>
<path transform="translate(448,414)" d="m0 0 2 2 2-1-1 9-4 6-2-1 1-8z" fill="#141C30"/>
<path transform="translate(591,305)" d="m0 0h2v3l14 3-2 3-10-2h-7l2-5z" fill="#47684C"/>
<path transform="translate(475,302)" d="m0 0h1l3 9 3 6v3l-4-2-6-9 1-2h1z" fill="#34493F"/>
<path transform="translate(283,211)" d="m0 0 5 5 2 4 2 2-6 1-4-2v-2l1-4z" fill="#7EA967"/>
<path transform="translate(469,288)" d="m0 0h1v13l-2 1v-2l-4 2 1-6-1-4h2l1-3z" fill="#F6FDFA"/>
<path transform="translate(408,144)" d="m0 0h2v2l-5 5-6 7-4 7h-3l2-5 9-11z" fill="#F8FDFA"/>
<path transform="translate(642,347)" d="m0 0h1l1 10 3-1 2-3-1 5-4 8h-3v-9z" fill="#6C9855"/>
<path transform="translate(311,194)" d="m0 0h4l2 4-3 1v4l-5-1-1 2-1-5z" fill="#F6FDFA"/>
<path transform="translate(451,295)" d="m0 0h2l-1 4 4 1-13 5h-2l1-4 6-2v-3z" fill="#80AC68"/>
<path transform="translate(365,324)" d="m0 0 9 1-2 1v2l-16 3v-2z" fill="#628F4A"/>
<path transform="translate(240,226)" d="m0 0h2v12h1l1-5h1l1 10h-5l-2-5v-8z" fill="#7EA967"/>
<path transform="translate(609,327)" d="m0 0h2l1 3-13 4h-5l4-4z" fill="#456347"/>
<path transform="translate(551,274)" d="m0 0 11 1 3 2v2h-16l4-1v-2l-3-1z" fill="#7BA565"/>
<path transform="translate(508,214)" d="m0 0h6l4 6-1 2-8-1-2-4z" fill="#FCFDFC"/>
<path transform="translate(535,447)" d="m0 0h3l4 7v10l-2 1-4-15z" fill="#E5BB39"/>
<path transform="translate(274,248)" d="m0 0 5 2 3 4-1 3-2-2-4-1-7-3 1-2z" fill="#628F4A"/>
<path transform="translate(360,329)" d="m0 0h5l4 3-2 2-8 1-3-1 1-4z" fill="#7CA666"/>
<path transform="translate(670,215)" d="m0 0h3v9l-1 7 2 1h-3v-11h-7l5-5z" fill="#375244"/>
<path transform="translate(414,208)" d="m0 0h12l5 3v3l-12-3-5-1z" fill="#618E49"/>
<path transform="translate(357,156)" d="m0 0 4 2h5l-3 9h-3l-3-6z" fill="#7EA967"/>
<path transform="translate(204,605)" d="m0 0 5 3 10 10 2 1-1 3-12-11-4-3z" fill="#1F2E38"/>
<path transform="translate(202,303)" d="m0 0h1l1 10 2 2h-5v-2h-2l-1-8h3z" fill="#80AB68"/>
<path transform="translate(277,253)" d="m0 0 3 1 1 2 2-1 1 5h-2l-1 2-8-4 4-4z" fill="#81AC6A"/>
<path transform="translate(320,180)" d="m0 0h10l1 5 4 3-6-1-7-3v-2z" fill="#79A264"/>
<path transform="translate(217,180)" d="m0 0 3 1-5 6-6 5-2 4h-2l-3 3v-3l11-11z" fill="#081030"/>
<path transform="translate(324,151)" d="m0 0h10l5 2v1h-20l1-2z" fill="#67934F"/>
<path transform="translate(278,156)" d="m0 0h5v2l-12 8h-2l2-4z" fill="#182537"/>
<path transform="translate(272,143)" d="m0 0 2 1-3 4-5 3-6 2-2-2z" fill="#1A2637"/>
<path transform="translate(341,118)" d="m0 0h5v2l-2 1-1 3h-8v-2l-2-2z" fill="#152136"/>
<path transform="translate(231,251)" d="m0 0 8 6 2 5h-5l-6-9z" fill="#7CA666"/>
<path transform="translate(428,160)" d="m0 0 2 1-1 1 5 1v2l-11 5-1-2z" fill="#749E5E"/>
<path transform="translate(679,481)" d="m0 0 1 3-4 13-2 5-3-2 4-9z" fill="#6B9656"/>
<path transform="translate(651,340)" d="m0 0h3l2 2h4l1 5-5 2-2 1v-5z" fill="#0A1231"/>
<path transform="translate(269,245)" d="m0 0 5 1v3l-5 1-3 3-2-4-2-2z" fill="#78A163"/>
<path transform="translate(392,196)" d="m0 0h2l-1 5-6 6v-2h-5l5-4z" fill="#80AC68"/>
<path transform="translate(297,168)" d="m0 0 3 2v11l-3-4h-2l-1-5z" fill="#7DA766"/>
<path transform="translate(356,153)" d="m0 0 2 1v7l1 3-4 1-2-1-1-5z" fill="#F6FDFA"/>
<path transform="translate(479,142)" d="m0 0h7v3l3 1-3 1-2 3-4-3z" fill="#79A264"/>
<path transform="translate(324,194)" d="m0 0 11 5-2 2 1 2-6-1-4-5z" fill="#F6FDFA"/>
<path transform="translate(428,456)" d="m0 0 4 1-3 4h-2v2h-2l-1-2-3 2 2-4 2-2h2zm-8 7m-1 1m-2 1 2 1h-3z" fill="#131A31"/>
<path transform="translate(671,501)" d="m0 0h2l-1 7-3 4-4 3 1-4z" fill="#486645"/>
<path transform="translate(237,302)" d="m0 0 1 2h2l2 5-1 5h-3l-1-5z" fill="#78A162"/>
<path transform="translate(201,293)" d="m0 0 2 4-1 9-5-1v-5h4z" fill="#79A264"/>
<path transform="translate(681,224)" d="m0 0 2 1v7l-5-1-4-1z" fill="#2A444D"/>
<path transform="translate(675,372)" d="m0 0 2 3 2 6-1 4-6-8 1-2z" fill="#405944"/>
<path transform="translate(282,229)" d="m0 0 10 2-1 2-11 1v-4z" fill="#7FAB68"/>
<path transform="translate(518,227)" d="m0 0h3v2l4 2v5l-5 1-2-2 1-2h3z" fill="#79A264"/>
<path transform="translate(496,200)" d="m0 0h10l3 3v1h-10l-3-2z" fill="#F6FEFA"/>
<path transform="translate(544,178)" d="m0 0 4 1 6 1v1l-7 2v1l-7-1 1-3z" fill="#7BA565"/>
<path transform="translate(643,348)" d="m0 0 2 1v2h4l-2 6-4 1z" fill="#051847"/>
<path transform="translate(155,254)" d="m0 0 1 2-6 12-1 4-4 2 2-6z" fill="#2A3F41"/>
<path transform="translate(287,232)" d="m0 0h4v3h3v2l5 2-3 1-11-5v-2z" fill="#7AA364"/>
<path transform="translate(293,245)" d="m0 0 14 2-2 2-7 2-5-1 1-3z" fill="#7AA465"/>
<path transform="translate(308,244)" d="m0 0h7v3l-7 4-1-4z" fill="#F6FDFA"/>
<path transform="translate(411,207)" d="m0 0h12v1h-9l1 4-3 1-3-3-4-2z" fill="#7AA465"/>
<path transform="translate(661,345)" d="m0 0 3 3 2 4-1 2-4-1-3-4 1-3z" fill="#1E2936"/>
<path transform="translate(458,289)" d="m0 0 4 1 1 4-9 2 2-4z" fill="#85AB64"/>
<path transform="translate(391,173)" d="m0 0 1 2-4 7-4 4-1-5z" fill="#3E5842"/>
<path transform="translate(346,127)" d="m0 0h5v2l-13 4h-3v-2z" fill="#23343A"/>
<path transform="translate(375,586)" d="m0 0h2l-2 12h-2v-6l-2-1z" fill="#192737"/>
<path transform="translate(163,555)" d="m0 0 5 5 5 9-4-2-6-8z" fill="#162337"/>
<path transform="translate(446,623)" d="m0 0h1l1 7-2 2h-4l1-6z" fill="#0C1633"/>
<path transform="translate(278,207)" d="m0 0h4l2 4v4l-1 3v-2h-2l-3-5z" fill="#7AA364"/>
<path transform="translate(366,203)" d="m0 0h2l-2 4-8 8-2-2z" fill="#2E3E3D"/>
<path transform="translate(361,198)" d="m0 0h2l2 4h-2v2l-6 5h-2v-2l4-4 1-4z" fill="#02184C"/>
<path transform="translate(438,464)" d="m0 0 4 2-3 6h-2l-3-7z" fill="#1E2D39"/>
<path transform="translate(522,390)" d="m0 0h7l-3 1v2l-3 3-2 3-1-8z" fill="#090F2F"/>
<path transform="translate(349,340)" d="m0 0h5l2 2-1 5-2-1v-2l-6-2z" fill="#0F1632"/>
<path transform="translate(349,286)" d="m0 0h8l4 2-3 3-7-3z" fill="#A6C496"/>
<path transform="translate(359,183)" d="m0 0h8l1 4-7 1-2-2z" fill="#151D32"/>
<path transform="translate(309,178)" d="m0 0 4 1v3l-5 1-1 3-1-6z" fill="#F6FDFA"/>
<path transform="translate(431,139)" d="m0 0 2 4-3 5h-2l-1 2-1-2 3-6z" fill="#F7FDFA"/>
<path transform="translate(438,596)" d="m0 0 4 1 5 6-4 2z" fill="#50724C"/>
<path transform="translate(450,248)" d="m0 0 5 2 7 5-4 2-1-2-4-1z" fill="#1A2738"/>
<path transform="translate(421,170)" d="m0 0h6v3 1 2l-3 1-4-4z" fill="#79A364"/>
<path transform="translate(502,562)" d="m0 0 1 2-2 9-1 6-2-2 2-13z" fill="#04092E"/>
<path transform="translate(283,222)" d="m0 0 6 1 4 4-18-1v-1l8-1z" fill="#F6FDFA"/>
<path transform="translate(499,192)" d="m0 0 4 2v3h3v3l-6 1 2-2-3-5z" fill="#79A364"/>
<path transform="translate(447,615)" d="m0 0h3l1 2v6l-3 2v-5l-2 2z" fill="#040A2F"/>
<path transform="translate(363,349)" d="m0 0 4 4 1 4h-4l-3-5z" fill="#3D5442"/>
<path transform="translate(375,327)" d="m0 0h9l3 3-6 1-6-3z" fill="#7CA766"/>
<path transform="translate(483,311)" d="m0 0h2l-2 11h-1l-2-6-1-4z" fill="#F7FDFA"/>
<path transform="translate(370,198)" d="m0 0 3 1-5 5-2-2z" fill="#1B2633"/>
<path transform="translate(294,186)" d="m0 0 3 1 2 7-5 1-1-4z" fill="#81AD69"/>
<path transform="translate(434,158)" d="m0 0h5l-4 1 1 3-1 1h-7l2-4z" fill="#67934F"/>
<path transform="translate(332,160)" d="m0 0 8 2 2 1-1 3-7-2z" fill="#79A264"/>
<path transform="translate(456,646)" d="m0 0h3l2 7h-5l-1-3z" fill="#1E313E"/>
<path transform="translate(272,450)" d="m0 0h2l-1 9-1 6h-1l-1-11z" fill="#293D3E"/>
<path transform="translate(371,324)" d="m0 0h8l6 2v1h-11v-2z" fill="#699552"/>
<path transform="translate(134,299)" d="m0 0h2l1 3-2 5-3 1 1-8z" fill="#121E36"/>
<path transform="translate(596,296)" d="m0 0 5 1-2 4-5 1 1-5z" fill="#334541"/>
<path transform="translate(451,295)" d="m0 0h2l-1 4 4 1-7 2-2-5z" fill="#7EA967"/>
<path transform="translate(329,181)" d="m0 0h5l1 3-1 2 3 1-2 1-5-3z" fill="#80AC68"/>
<path transform="translate(294,173)" d="m0 0h1v9l-4 1 1-7z" fill="#64904C"/>
<path transform="translate(308,162)" d="m0 0 5 2 3 3-6 1-2-1z" fill="#F6FDFA"/>
<path transform="translate(365,153)" d="m0 0 2 1v4l-7 1v-4z" fill="#79A364"/>
<path transform="translate(490,125)" d="m0 0 5 1 9 4-3 1-13-4z" fill="#668F53"/>
<path transform="translate(604,596)" d="m0 0 2 1-4 4v-3zm-4 4m-1 1m-1 1m-1 2m-1 1m-1 1m-1 1m-1 1 1 2-2-1z" fill="#020830"/>
<path transform="translate(309,216)" d="m0 0 3 1-2 10-2-2v-8z" fill="#7FAA68"/>
<path transform="translate(248,205)" d="m0 0 3 1-3 8-3-3z" fill="#7CA666"/>
<path transform="translate(355,201)" d="m0 0 2 1-10 10-4 1 5-5z" fill="#2C3E3F"/>
<path transform="translate(444,604)" d="m0 0 4 1 2 6-5-1z" fill="#23343E"/>
<path transform="translate(656,353)" d="m0 0 5 1 1 1v5l-2 1z" fill="#273538"/>
<path transform="translate(497,338)" d="m0 0h7l7 2-1 3-5-1v-2l-8-1z" fill="#344C43"/>
<path transform="translate(360,288)" d="m0 0 6 1 1 4-8-2z" fill="#7EA967"/>
<path transform="translate(677,229)" d="m0 0 3 1-1 4-4 1-4-3z" fill="#04082E"/>
<path transform="translate(384,218)" d="m0 0h11l-2 2-9 1z" fill="#213339"/>
<path transform="translate(350,186)" d="m0 0 2 2 1 9-2 2v-5l-3 1 1-8z" fill="#7AA364"/>
</svg>
